<svg width="14" height="10" viewBox="0 0 14 10" fill="none" xmlns="http://www.w3.org/2000/svg">
<path d="M0.902 9V0.97H2.662V9H0.902ZM2.442 9V7.504H5.951V9H2.442ZM2.442 5.667V4.171H5.698V5.667H2.442ZM2.442 2.466V0.97H5.874V2.466H2.442ZM10.1735 9.209C9.44754 9.209 8.83521 9.09533 8.33654 8.868C7.83787 8.63333 7.46021 8.318 7.20354 7.922C6.94687 7.51867 6.81854 7.05667 6.81854 6.536H8.56754C8.56754 6.74133 8.62254 6.932 8.73254 7.108C8.84987 7.284 9.02587 7.427 9.26054 7.537C9.49521 7.63967 9.79954 7.691 10.1735 7.691C10.5109 7.691 10.7932 7.647 11.0205 7.559C11.2479 7.471 11.4202 7.35 11.5375 7.196C11.6549 7.03467 11.7135 6.85133 11.7135 6.646C11.7135 6.38933 11.6035 6.18767 11.3835 6.041C11.1635 5.887 10.8079 5.788 10.3165 5.744L9.71154 5.689C8.91221 5.623 8.27421 5.37367 7.79754 4.941C7.32087 4.50833 7.08254 3.93633 7.08254 3.225C7.08254 2.71167 7.20354 2.268 7.44554 1.894C7.69487 1.52 8.03954 1.234 8.47954 1.036C8.91954 0.830666 9.44021 0.728 10.0415 0.728C10.6722 0.728 11.2112 0.838 11.6585 1.058C12.1132 1.27067 12.4615 1.575 12.7035 1.971C12.9455 2.35967 13.0665 2.818 13.0665 3.346H11.3065C11.3065 3.148 11.2589 2.96833 11.1635 2.807C11.0682 2.63833 10.9252 2.50267 10.7345 2.4C10.5512 2.29733 10.3202 2.246 10.0415 2.246C9.77754 2.246 9.55387 2.29 9.37054 2.378C9.19454 2.466 9.06254 2.587 8.97454 2.741C8.88654 2.88767 8.84254 3.049 8.84254 3.225C8.84254 3.45233 8.92321 3.65033 9.08454 3.819C9.24587 3.98767 9.50987 4.08667 9.87654 4.116L10.4925 4.171C11.0792 4.22233 11.5962 4.35067 12.0435 4.556C12.4909 4.754 12.8392 5.029 13.0885 5.381C13.3452 5.72567 13.4735 6.14733 13.4735 6.646C13.4735 7.15933 13.3379 7.61033 13.0665 7.999C12.8025 8.38033 12.4249 8.67733 11.9335 8.89C11.4422 9.10267 10.8555 9.209 10.1735 9.209Z" fill="white"/>
</svg>
